<?xml version="1.0" encoding="UTF-8"?>
<svg width="800" height="200" viewBox="0 0 800 200" xmlns="http://www.w3.org/2000/svg">
  <defs>
    <linearGradient id="bg-gradient" x1="0%" y1="0%" x2="100%" y2="0%">
      <stop offset="0%" style="stop-color:#4A90E2;stop-opacity:1" />
      <stop offset="100%" style="stop-color:#67B26F;stop-opacity:1" />
    </linearGradient>
    <style>
      @keyframes fadeIn {
        from { opacity: 0; }
        to { opacity: 1; }
      }
      @keyframes slideIn {
        from { transform: translateY(20px); }
        to { transform: translateY(0); }
      }
      .text {
        font-family: -apple-system, BlinkMacSystemFont, 'Segoe UI', Roboto, Oxygen, Ubuntu, Cantarell, 'Open Sans', 'Helvetica Neue', sans-serif;
        animation: fadeIn 1s ease-out, slideIn 1s ease-out;
      }
    </style>
  </defs>
  
  <!-- 背景の角丸長方形 -->
  <rect x="10" y="10" width="780" height="180" rx="20" ry="20" 
        fill="url(#bg-gradient)"
        style="animation: fadeIn 1s ease-out">
  </rect>
  
  <!-- メインテキスト -->
  <text x="400" y="90" class="text" 
        style="font-size: 48px; fill: white; text-anchor: middle; font-weight: bold">
    Amazon Affiliate Tool
  </text>
  
  <!-- サブテキスト -->
  <text x="400" y="130" class="text"
        style="font-size: 24px; fill: rgba(255,255,255,0.9); text-anchor: middle">
    Transform your links with elegance
  </text>
  
  <!-- アイコン -->
  <g transform="translate(365,50) scale(0.8)" class="text">
    <path d="M20,15H4c-1.1,0-2,0.9-2,2v10c0,1.1,0.9,2,2,2h16c1.1,0,2-0.9,2-2V17C22,15.9,21.1,15,20,15z M13,21h-2v-2h2V21z M13,17h-2 v-2h2V17z M17,21h-2v-2h2V21z M17,17h-2v-2h2V17z M9,21H7v-2h2V21z M9,17H7v-2h2V17z"
          fill="white" opacity="0.9">
      <animateTransform attributeName="transform"
                        attributeType="XML"
                        type="rotate"
                        from="0 12 12"
                        to="360 12 12"
                        dur="20s"
                        repeatCount="indefinite"/>
    </path>
  </g>
</svg>